<mxfile host="app.diagrams.net" modified="2024-03-04T23:53:47.036Z" agent="Mozilla/5.0 (Windows NT 10.0; Win64; x64) AppleWebKit/537.36 (KHTML, like Gecko) Chrome/122.0.0.0 Safari/537.36" etag="AfqYZ8_biautANzm_s-M" version="23.1.5" type="device">
  <diagram id="C5RBs43oDa-KdzZeNtuy" name="Page-1">
    <mxGraphModel dx="989" dy="570" grid="1" gridSize="10" guides="1" tooltips="1" connect="1" arrows="1" fold="1" page="1" pageScale="1" pageWidth="827" pageHeight="1169" math="0" shadow="0">
      <root>
        <mxCell id="WIyWlLk6GJQsqaUBKTNV-0" />
        <mxCell id="WIyWlLk6GJQsqaUBKTNV-1" parent="WIyWlLk6GJQsqaUBKTNV-0" />
        <mxCell id="OEn_OylxVQoGn8vpEVn8-6" value="Да" style="edgeStyle=orthogonalEdgeStyle;rounded=0;orthogonalLoop=1;jettySize=auto;html=1;entryX=0.5;entryY=0;entryDx=0;entryDy=0;" edge="1" parent="WIyWlLk6GJQsqaUBKTNV-1" source="WIyWlLk6GJQsqaUBKTNV-6" target="OEn_OylxVQoGn8vpEVn8-1">
          <mxGeometry relative="1" as="geometry" />
        </mxCell>
        <mxCell id="OEn_OylxVQoGn8vpEVn8-30" value="Нет" style="edgeStyle=orthogonalEdgeStyle;rounded=0;orthogonalLoop=1;jettySize=auto;html=1;entryX=1;entryY=0.5;entryDx=0;entryDy=0;" edge="1" parent="WIyWlLk6GJQsqaUBKTNV-1" source="WIyWlLk6GJQsqaUBKTNV-6" target="OEn_OylxVQoGn8vpEVn8-2">
          <mxGeometry relative="1" as="geometry" />
        </mxCell>
        <mxCell id="WIyWlLk6GJQsqaUBKTNV-6" value="Есть корни на промежутке?" style="rhombus;whiteSpace=wrap;html=1;shadow=0;fontFamily=Helvetica;fontSize=12;align=center;strokeWidth=1;spacing=6;spacingTop=-4;" parent="WIyWlLk6GJQsqaUBKTNV-1" vertex="1">
          <mxGeometry x="165" y="120" width="130" height="80" as="geometry" />
        </mxCell>
        <mxCell id="OEn_OylxVQoGn8vpEVn8-3" style="edgeStyle=orthogonalEdgeStyle;rounded=0;orthogonalLoop=1;jettySize=auto;html=1;" edge="1" parent="WIyWlLk6GJQsqaUBKTNV-1" source="OEn_OylxVQoGn8vpEVn8-0" target="WIyWlLk6GJQsqaUBKTNV-6">
          <mxGeometry relative="1" as="geometry" />
        </mxCell>
        <mxCell id="OEn_OylxVQoGn8vpEVn8-0" value="Начало" style="ellipse;whiteSpace=wrap;html=1;" vertex="1" parent="WIyWlLk6GJQsqaUBKTNV-1">
          <mxGeometry x="170" y="30" width="120" height="50" as="geometry" />
        </mxCell>
        <mxCell id="OEn_OylxVQoGn8vpEVn8-8" style="edgeStyle=orthogonalEdgeStyle;rounded=0;orthogonalLoop=1;jettySize=auto;html=1;entryX=0.5;entryY=0;entryDx=0;entryDy=0;" edge="1" parent="WIyWlLk6GJQsqaUBKTNV-1" source="OEn_OylxVQoGn8vpEVn8-1" target="OEn_OylxVQoGn8vpEVn8-7">
          <mxGeometry relative="1" as="geometry" />
        </mxCell>
        <mxCell id="OEn_OylxVQoGn8vpEVn8-1" value="Выбрать x0 исходя из второй производной" style="rounded=1;whiteSpace=wrap;html=1;fontSize=12;glass=0;strokeWidth=1;shadow=0;" vertex="1" parent="WIyWlLk6GJQsqaUBKTNV-1">
          <mxGeometry x="170" y="240" width="120" height="40" as="geometry" />
        </mxCell>
        <mxCell id="OEn_OylxVQoGn8vpEVn8-2" value="Конец" style="ellipse;whiteSpace=wrap;html=1;" vertex="1" parent="WIyWlLk6GJQsqaUBKTNV-1">
          <mxGeometry x="10" y="135" width="120" height="50" as="geometry" />
        </mxCell>
        <mxCell id="OEn_OylxVQoGn8vpEVn8-11" value="Да" style="edgeStyle=orthogonalEdgeStyle;rounded=0;orthogonalLoop=1;jettySize=auto;html=1;entryX=0;entryY=0.5;entryDx=0;entryDy=0;" edge="1" parent="WIyWlLk6GJQsqaUBKTNV-1" source="OEn_OylxVQoGn8vpEVn8-7" target="OEn_OylxVQoGn8vpEVn8-10">
          <mxGeometry relative="1" as="geometry" />
        </mxCell>
        <mxCell id="OEn_OylxVQoGn8vpEVn8-28" value="Нет" style="edgeStyle=orthogonalEdgeStyle;rounded=0;orthogonalLoop=1;jettySize=auto;html=1;entryX=0.5;entryY=0;entryDx=0;entryDy=0;" edge="1" parent="WIyWlLk6GJQsqaUBKTNV-1" source="OEn_OylxVQoGn8vpEVn8-7" target="OEn_OylxVQoGn8vpEVn8-27">
          <mxGeometry relative="1" as="geometry" />
        </mxCell>
        <mxCell id="OEn_OylxVQoGn8vpEVn8-7" value="f(x) &amp;lt; погрешность?" style="rhombus;whiteSpace=wrap;html=1;shadow=0;fontFamily=Helvetica;fontSize=12;align=center;strokeWidth=1;spacing=6;spacingTop=-4;" vertex="1" parent="WIyWlLk6GJQsqaUBKTNV-1">
          <mxGeometry x="165" y="310" width="130" height="80" as="geometry" />
        </mxCell>
        <mxCell id="OEn_OylxVQoGn8vpEVn8-10" value="Результат" style="ellipse;whiteSpace=wrap;html=1;" vertex="1" parent="WIyWlLk6GJQsqaUBKTNV-1">
          <mxGeometry x="354" y="325" width="120" height="50" as="geometry" />
        </mxCell>
        <mxCell id="OEn_OylxVQoGn8vpEVn8-31" value="Да" style="edgeStyle=orthogonalEdgeStyle;rounded=0;orthogonalLoop=1;jettySize=auto;html=1;entryX=0.5;entryY=1;entryDx=0;entryDy=0;" edge="1" parent="WIyWlLk6GJQsqaUBKTNV-1" source="OEn_OylxVQoGn8vpEVn8-27" target="OEn_OylxVQoGn8vpEVn8-2">
          <mxGeometry relative="1" as="geometry">
            <Array as="points">
              <mxPoint x="110" y="470" />
              <mxPoint x="110" y="185" />
            </Array>
          </mxGeometry>
        </mxCell>
        <mxCell id="OEn_OylxVQoGn8vpEVn8-33" value="Нет" style="edgeStyle=orthogonalEdgeStyle;rounded=0;orthogonalLoop=1;jettySize=auto;html=1;entryX=0.5;entryY=0;entryDx=0;entryDy=0;" edge="1" parent="WIyWlLk6GJQsqaUBKTNV-1" source="OEn_OylxVQoGn8vpEVn8-27" target="OEn_OylxVQoGn8vpEVn8-32">
          <mxGeometry relative="1" as="geometry" />
        </mxCell>
        <mxCell id="OEn_OylxVQoGn8vpEVn8-27" value="f&#39;(x) = 0?" style="rhombus;whiteSpace=wrap;html=1;shadow=0;fontFamily=Helvetica;fontSize=12;align=center;strokeWidth=1;spacing=6;spacingTop=-4;" vertex="1" parent="WIyWlLk6GJQsqaUBKTNV-1">
          <mxGeometry x="165" y="430" width="130" height="80" as="geometry" />
        </mxCell>
        <mxCell id="OEn_OylxVQoGn8vpEVn8-36" style="edgeStyle=orthogonalEdgeStyle;rounded=0;orthogonalLoop=1;jettySize=auto;html=1;entryX=0.5;entryY=0;entryDx=0;entryDy=0;" edge="1" parent="WIyWlLk6GJQsqaUBKTNV-1" source="OEn_OylxVQoGn8vpEVn8-32" target="OEn_OylxVQoGn8vpEVn8-34">
          <mxGeometry relative="1" as="geometry" />
        </mxCell>
        <mxCell id="OEn_OylxVQoGn8vpEVn8-32" value="x -= шаг (f(x)/f&#39;(x))" style="rounded=1;whiteSpace=wrap;html=1;fontSize=12;glass=0;strokeWidth=1;shadow=0;" vertex="1" parent="WIyWlLk6GJQsqaUBKTNV-1">
          <mxGeometry x="170" y="545" width="120" height="40" as="geometry" />
        </mxCell>
        <mxCell id="OEn_OylxVQoGn8vpEVn8-37" value="Нет" style="edgeStyle=orthogonalEdgeStyle;rounded=0;orthogonalLoop=1;jettySize=auto;html=1;entryX=0.5;entryY=1;entryDx=0;entryDy=0;" edge="1" parent="WIyWlLk6GJQsqaUBKTNV-1" source="OEn_OylxVQoGn8vpEVn8-34" target="OEn_OylxVQoGn8vpEVn8-2">
          <mxGeometry relative="1" as="geometry" />
        </mxCell>
        <mxCell id="OEn_OylxVQoGn8vpEVn8-40" value="Да" style="edgeStyle=orthogonalEdgeStyle;rounded=0;orthogonalLoop=1;jettySize=auto;html=1;" edge="1" parent="WIyWlLk6GJQsqaUBKTNV-1" source="OEn_OylxVQoGn8vpEVn8-34" target="OEn_OylxVQoGn8vpEVn8-38">
          <mxGeometry relative="1" as="geometry" />
        </mxCell>
        <mxCell id="OEn_OylxVQoGn8vpEVn8-34" value="x все еще в промежутке?" style="rhombus;whiteSpace=wrap;html=1;shadow=0;fontFamily=Helvetica;fontSize=12;align=center;strokeWidth=1;spacing=6;spacingTop=-4;" vertex="1" parent="WIyWlLk6GJQsqaUBKTNV-1">
          <mxGeometry x="165" y="620" width="130" height="80" as="geometry" />
        </mxCell>
        <mxCell id="OEn_OylxVQoGn8vpEVn8-39" value="Да" style="edgeStyle=orthogonalEdgeStyle;rounded=0;orthogonalLoop=1;jettySize=auto;html=1;entryX=0.5;entryY=1;entryDx=0;entryDy=0;" edge="1" parent="WIyWlLk6GJQsqaUBKTNV-1" source="OEn_OylxVQoGn8vpEVn8-38" target="OEn_OylxVQoGn8vpEVn8-10">
          <mxGeometry relative="1" as="geometry" />
        </mxCell>
        <mxCell id="OEn_OylxVQoGn8vpEVn8-41" value="Нет" style="edgeStyle=orthogonalEdgeStyle;rounded=0;orthogonalLoop=1;jettySize=auto;html=1;" edge="1" parent="WIyWlLk6GJQsqaUBKTNV-1" source="OEn_OylxVQoGn8vpEVn8-38">
          <mxGeometry relative="1" as="geometry">
            <mxPoint x="230" y="290" as="targetPoint" />
            <Array as="points">
              <mxPoint x="230" y="810" />
              <mxPoint x="490" y="810" />
              <mxPoint x="490" y="290" />
            </Array>
          </mxGeometry>
        </mxCell>
        <mxCell id="OEn_OylxVQoGn8vpEVn8-38" value="Шаг &amp;lt; погрешность?" style="rhombus;whiteSpace=wrap;html=1;shadow=0;fontFamily=Helvetica;fontSize=12;align=center;strokeWidth=1;spacing=6;spacingTop=-4;" vertex="1" parent="WIyWlLk6GJQsqaUBKTNV-1">
          <mxGeometry x="165" y="720" width="130" height="80" as="geometry" />
        </mxCell>
      </root>
    </mxGraphModel>
  </diagram>
</mxfile>
